<?xml version="1.0" encoding="utf-8"?>
<svg version="1.1" id="Layer_1" xmlns="http://www.w3.org/2000/svg" xmlns:xlink="http://www.w3.org/1999/xlink" width="177" height="69" viewBox="0 0 177 69" xml:space="preserve">
<path fill="#fff" d="M19.3,38.7c-2,0.5-4.2,0.7-5.9-0.6c-1.2-1-2.1-2.5-2.2-4.1c-0.4-3.4,2-6.5,5.4-7c1.6-0.1,3.2,0.1,4.7,0.8
	l0.7-2.4c-2.8-1.2-6-1.3-8.9-0.4l0,0c-3.6,1.4-5.8,5.1-5.4,9c0.2,3.6,2.7,6.6,6.2,7.4c2.9,0.7,5.8,0.4,8.5-0.7v-8.4l-3.1,0
	L19.3,38.7L19.3,38.7z"/>
<path fill="#fff" d="M43,28.9c-2.6,0-6,1.5-6,6.4s3.1,6.4,6.1,6.4c2.7,0,6-1.5,6-6.3C49,30.7,45.9,28.9,43,28.9z M45.4,38.2
	c-0.3,0.6-0.7,1-1.3,1.3c-1.3,0.6-2.9,0-3.5-1.3c-1-1.8-0.9-3.9,0.1-5.7c0.2-0.3,0.3-0.5,0.6-0.7c1.1-1,2.9-0.9,3.9,0.2l0,0
	C46.5,33.8,46.6,36.2,45.4,38.2L45.4,38.2z"/>
<path fill="#fff" d="M31.9,29.2c-2.2-0.7-4.5,0-6,1.8c-1.2,1.5-1.7,3.4-1.5,5.2c0.2,2.5,1.5,4.6,3.6,5.2c2.4,0.7,5,0.2,6.9-1.6
	l-1.1-1.8c-1.6,1.1-3.1,2-4.9,0.8c-1.2-0.7-1.4-1.9-1.4-3.3h7.9C35.4,34.3,35.4,30.2,31.9,29.2z M28.9,33.7h-1.4
	c0.1-1.5,1.3-2.7,2.8-2.7c1.3,0,2.1,1.2,2.1,2.7H28.9L28.9,33.7z"/>
<rect x="8.2" y="43.2" fill="#fff" width="1.6" height="1.6"/>
<rect x="11.2" y="43.2" fill="#fff" width="1.6" height="1.6"/>
<rect x="14.2" y="43.2" fill="#fff" width="1.6" height="1.6"/>
<rect x="17.2" y="43.2" fill="#fff" width="1.6" height="1.6"/>
<rect x="20.2" y="43.2" fill="#fff" width="1.6" height="1.6"/>
<rect x="23.2" y="43.2" fill="#fff" width="1.6" height="1.6"/>
<rect x="26.2" y="43.2" fill="#fff" width="1.6" height="1.6"/>
<rect x="29.2" y="43.2" fill="#fff" width="1.6" height="1.6"/>
<rect x="32.2" y="43.2" fill="#fff" width="1.6" height="1.6"/>
<rect x="35.2" y="43.2" fill="#fff" width="1.6" height="1.6"/>
<rect x="38.2" y="43.2" fill="#fff" width="1.6" height="1.6"/>
<rect x="41.2" y="43.2" fill="#fff" width="1.6" height="1.6"/>
<rect x="44.2" y="43.2" fill="#fff" width="1.6" height="1.6"/>
<rect x="47.2" y="43.2" fill="#fff" width="1.6" height="1.6"/>
<path fill="#fff" d="M86.1,0.3C39.8,0.3,2.5,13.6,0.8,33c0,0,7.8-28.4,84.9-28.4c30.3,0,82.5,11.8,82.5,29.8
	c0,20.9-46.7,32.8-80.9,33.6l0.1,0.6c44.4,2.1,89.4-13.3,89.4-33.1C176.7,6.3,114,0.3,86.1,0.3L86.1,0.3z"/>
<path fill="#fff" d="M75.2,33.7c0-1.5-0.8-2.7-2.1-2.7c-0.5,0-1,0.1-1.4,0.4c-0.8,0.5-1.3,1.4-1.3,2.3l0,0H75.2z"/>
<polygon fill="#fff" points="102,17.8 103.4,17.7 105.1,33.2 106,20 107.4,20 109.2,33.6 110.5,22.4 111.9,22.4 113.8,33.1
	115.5,25.8 116.9,25.7 118.6,29.7 130,29.7 100.6,13.6 101.3,29.5 101.9,17.8 "/>
<path fill="#fff" d="M92.3,43.3L94,20l1.4,0L97,32.8l1.9-20c-3.2,3.5-7.8,5.5-12.5,5.4c-4.7,0.1-9.2-1.9-12.3-5.5L50.3,25.4v21
	h110.5l-28.1-15.3l0,0h-14.9l-1.3-2.9l-2,8.6l-1.4,0l-1.7-9.3l-1.4,12.2h-1.4l-1.6-12.3l-1,14.1l-1.4,0l-1.6-14.8l-1,17.4h-1.4
	l-1-22.7l-1.8,18.2h-1.4l-1.4-12l-1.1,17H72.7v-1.5L92.3,43.3L92.3,43.3z M79.2,29.3h2v-4.5h2.9v4.4h2.8v2.1H84L83.9,38
	c0,0.9,0.6,1,1.2,0.9l1.6-0.4l0.5,1.9c-1.2,0.8-2.6,1.1-4,1c-1.3-0.2-2.1-0.8-2.2-2.8l0.1-7.2h-1.9L79.2,29.3L79.2,29.3z M53.3,44.8
	h-1.6v-1.6h1.6V44.8z M53.9,41.8L53.9,41.8l-2.9,0V26l3.3-1.7L62,36.8v-12h3.1l0,16l-3.2,1L53.9,29C53.9,29,53.9,41.8,53.9,41.8z
	 M56.3,44.8h-1.6v-1.6h1.6V44.8z M59.2,44.8h-1.6v-1.6h1.6L59.2,44.8L59.2,44.8z M62.2,44.8h-1.6v-1.6h1.6V44.8z M65.2,44.8h-1.6
	v-1.6h1.6V44.8z M68.2,44.8h-1.6v-1.6h1.6V44.8z M71.2,44.8h-1.6v-1.6h1.6V44.8z M70.7,41.4L70.7,41.4c-2.1-0.7-3.4-2.7-3.6-5.2
	c-0.2-1.9,0.3-3.8,1.5-5.2c0.5-0.5,1-1,1.7-1.4c1.3-0.8,2.9-0.9,4.4-0.5c3.6,1,3.5,5.1,3.5,6.4h-0.1v0h-7.8c0,1.4,0.3,2.5,1.4,3.2
	c1.2,0.8,2.8,0.7,4-0.2c0.3-0.2,0.6-0.4,0.9-0.6l0,0c0,0,0.1,0,0.1,0l1.1,1.8c-0.4,0.3-0.8,0.6-1.2,0.9
	C74.8,41.8,72.7,42.1,70.7,41.4L70.7,41.4z"/>
<g>
	<path fill="#fff" d="M8.2,62.2v-8.5h2.4c0.7,0,1.4,0.2,2,0.5s1,0.8,1.3,1.4s0.5,1.3,0.5,2.1v0.5c0,0.8-0.2,1.5-0.5,2.1
		s-0.8,1.1-1.3,1.4s-1.2,0.5-2,0.5H8.2z M9.4,54.6v6.7h1.2c0.9,0,1.5-0.3,2-0.8c0.5-0.5,0.7-1.3,0.7-2.3v-0.5c0-1-0.2-1.7-0.7-2.3
		c-0.5-0.5-1.1-0.8-1.9-0.8H9.4z"/>
	<path fill="#fff" d="M19.9,62.2c-0.1-0.1-0.1-0.3-0.2-0.7c-0.5,0.5-1.1,0.8-1.8,0.8c-0.6,0-1.1-0.2-1.5-0.5s-0.6-0.8-0.6-1.3
		c0-0.7,0.3-1.2,0.8-1.5s1.2-0.5,2.1-0.5h1.1v-0.5c0-0.4-0.1-0.7-0.3-0.9s-0.6-0.3-1-0.3c-0.4,0-0.7,0.1-1,0.3S17,57.3,17,57.6h-1.1
		c0-0.3,0.1-0.6,0.3-0.9s0.5-0.5,0.9-0.7s0.8-0.3,1.3-0.3c0.7,0,1.3,0.2,1.7,0.5s0.6,0.9,0.6,1.5v2.9c0,0.6,0.1,1,0.2,1.4v0.1H19.9z
		 M18.1,61.3c0.3,0,0.7-0.1,1-0.3s0.5-0.4,0.7-0.7v-1.3h-0.8c-1.3,0-2,0.4-2,1.2c0,0.3,0.1,0.6,0.3,0.8S17.7,61.3,18.1,61.3z"/>
	<path fill="#fff" d="M27.8,59.1c0,1-0.2,1.7-0.7,2.3s-1,0.9-1.8,0.9c-0.8,0-1.4-0.2-1.8-0.7v3.1h-1.1v-8.8h1l0.1,0.7
		c0.4-0.5,1.1-0.8,1.8-0.8c0.8,0,1.4,0.3,1.8,0.9S27.8,58,27.8,59.1L27.8,59.1z M26.7,59c0-0.7-0.2-1.3-0.5-1.7s-0.7-0.6-1.3-0.6
		c-0.7,0-1.1,0.3-1.5,0.9v3c0.3,0.6,0.8,0.9,1.5,0.9c0.5,0,0.9-0.2,1.2-0.6S26.7,59.8,26.7,59z"/>
	<path fill="#fff" d="M34.6,59.1c0,1-0.2,1.7-0.7,2.3s-1,0.9-1.8,0.9c-0.8,0-1.4-0.2-1.8-0.7v3.1h-1.1v-8.8h1l0.1,0.7
		c0.4-0.5,1.1-0.8,1.8-0.8c0.8,0,1.4,0.3,1.8,0.9S34.6,58,34.6,59.1L34.6,59.1z M33.5,59c0-0.7-0.2-1.3-0.5-1.7s-0.7-0.6-1.3-0.6
		c-0.7,0-1.1,0.3-1.5,0.9v3c0.3,0.6,0.8,0.9,1.5,0.9c0.5,0,0.9-0.2,1.2-0.6S33.5,59.8,33.5,59z"/>
	<path fill="#fff" d="M38.6,62.3c-0.9,0-1.6-0.3-2.1-0.8s-0.8-1.3-0.8-2.3V59c0-0.6,0.1-1.2,0.4-1.7s0.6-0.9,1-1.2s0.9-0.4,1.4-0.4
		c0.8,0,1.5,0.3,1.9,0.8s0.7,1.3,0.7,2.3v0.5h-4.3c0,0.6,0.2,1.1,0.5,1.5s0.8,0.6,1.3,0.6c0.4,0,0.7-0.1,1-0.2s0.5-0.4,0.7-0.6
		l0.7,0.5C40.4,61.9,39.6,62.3,38.6,62.3z M38.4,56.6c-0.4,0-0.8,0.2-1.1,0.5s-0.5,0.8-0.6,1.3H40v-0.1c0-0.6-0.2-1-0.4-1.3
		S38.9,56.6,38.4,56.6z"/>
	<path fill="#fff" d="M45.4,56.8c-0.2,0-0.3,0-0.5,0c-0.7,0-1.2,0.3-1.4,0.9v4.5h-1.1v-6.3h1.1l0,0.7c0.4-0.6,0.9-0.8,1.5-0.8
		c0.2,0,0.4,0,0.5,0.1V56.8z"/>
	<path fill="#fff" d="M54.2,59.9h-3.6l-0.8,2.2h-1.2l3.3-8.5h1l3.3,8.5H55L54.2,59.9z M51,59h2.9l-1.5-4L51,59z"/>
	<path fill="#fff" d="M58.4,58.8v3.3h-1.1v-8.5h3.1c0.9,0,1.7,0.2,2.2,0.7s0.8,1.1,0.8,1.9c0,0.8-0.3,1.5-0.8,1.9s-1.3,0.7-2.2,0.7
		H58.4z M58.4,57.9h2c0.6,0,1.1-0.1,1.4-0.4c0.3-0.3,0.5-0.7,0.5-1.2c0-0.5-0.2-0.9-0.5-1.2c-0.3-0.3-0.8-0.5-1.3-0.5h-2.1V57.9z"/>
	<path fill="#fff" d="M66.1,62.2H65v-8.5h1.1V62.2z"/>
</g>
</svg>
