<?xml version="1.0" encoding="UTF-8"?>
<svg id="Layer_1" data-name="Layer 1" xmlns="http://www.w3.org/2000/svg" width="177" height="69" viewBox="0 0 177 69">
  <path d="M22.4,32.34l-3.09,.04-.03,6.34c-1.96,.51-4.18,.68-5.94-.63-1.25-1.01-2.05-2.47-2.25-4.07-.43-3.42,2-6.54,5.42-6.97,1.62-.14,3.24,.13,4.72,.8l.73-2.41c-2.83-1.18-5.99-1.31-8.91-.36h0c-3.6,1.44-5.8,5.11-5.37,8.96,.16,3.57,2.69,6.6,6.18,7.39,2.85,.65,5.83,.4,8.53-.73v-8.37Z" fill="#fff"/>
  <path d="M49.01,35.36c0-4.69-3.14-6.43-6.04-6.43-2.6,0-6.04,1.48-6.04,6.38s3.1,6.38,6.1,6.38c2.7,0,5.98-1.55,5.98-6.33Zm-3.63,2.81c-.27,.56-.73,1-1.29,1.26-1.34,.61-2.91,.02-3.52-1.32-.97-1.77-.93-3.92,.1-5.65,.15-.27,.34-.52,.57-.72,1.13-1.02,2.86-.93,3.88,.2h0c1.33,1.84,1.44,4.29,.27,6.23Z" fill="#fff"/>
  <path d="M31.89,29.19c-2.16-.69-4.52,0-5.95,1.77-1.2,1.47-1.73,3.37-1.48,5.25,.18,2.53,1.49,4.59,3.59,5.25,2.41,.74,5.04,.15,6.89-1.57l-1.12-1.8c-1.56,1.07-3.09,1.96-4.92,.83-1.19-.74-1.43-1.89-1.44-3.3h7.9c.07-1.28,.08-5.39-3.47-6.43Zm-2.98,4.51h-1.41c.07-1.52,1.32-2.72,2.84-2.73,1.28,.02,2.12,1.19,2.12,2.73h-3.56Z" fill="#fff"/>
  <rect x="8.24" y="43.21" width="1.56" height="1.56" fill="#fff"/>
  <rect x="11.24" y="43.21" width="1.56" height="1.56" fill="#fff"/>
  <rect x="14.24" y="43.21" width="1.56" height="1.56" fill="#fff"/>
  <rect x="17.24" y="43.21" width="1.56" height="1.56" fill="#fff"/>
  <rect x="20.24" y="43.21" width="1.56" height="1.56" fill="#fff"/>
  <rect x="23.24" y="43.21" width="1.56" height="1.56" fill="#fff"/>
  <rect x="26.24" y="43.21" width="1.56" height="1.56" fill="#fff"/>
  <rect x="29.25" y="43.21" width="1.56" height="1.56" fill="#fff"/>
  <rect x="32.25" y="43.21" width="1.56" height="1.56" fill="#fff"/>
  <rect x="35.25" y="43.21" width="1.56" height="1.56" fill="#fff"/>
  <rect x="38.25" y="43.21" width="1.56" height="1.56" fill="#fff"/>
  <rect x="41.25" y="43.21" width="1.56" height="1.56" fill="#fff"/>
  <rect x="44.25" y="43.21" width="1.56" height="1.56" fill="#fff"/>
  <rect x="47.25" y="43.21" width="1.56" height="1.56" fill="#fff"/>
  <path d="M86.05,.32C39.81,.32,2.5,13.64,.76,32.96c0,0,7.75-28.39,84.9-28.39,30.3,0,82.49,11.77,82.49,29.76,0,20.9-46.66,32.83-80.95,33.6l.12,.56c44.36,2.07,89.42-13.27,89.42-33.14,0-29.04-62.71-35.03-90.69-35.03Z" fill="#fff"/>
  <path d="M75.15,33.65c-.02-1.51-.85-2.66-2.12-2.68-.5,0-.99,.13-1.41,.38-.78,.51-1.28,1.37-1.34,2.3h0s4.87,0,4.87,0Z" fill="#fff"/>
  <polygon points="101.96 17.77 103.4 17.73 105.06 33.24 105.98 20 107.42 19.95 109.17 33.61 110.46 22.41 111.89 22.36 113.79 33.1 115.49 25.8 116.86 25.67 118.64 29.67 129.98 29.67 100.61 13.64 101.31 29.47 101.95 17.77 101.96 17.77" fill="#fff"/>
  <path d="M92.29,43.26l1.69-23.26,1.44-.03,1.53,12.85,1.95-20.03c-3.22,3.49-7.76,5.45-12.5,5.41-4.7,.09-9.2-1.92-12.28-5.47l-23.86,12.67v21.04h110.5l-28.12-15.33h0s-14.88,0-14.88,0l-1.35-2.9-2.02,8.64-1.42-.04-1.65-9.33-1.4,12.18h-1.44s-1.57-12.26-1.57-12.26l-.98,14.11-1.44,.03-1.59-14.8-.96,17.39h-1.44s-1-22.68-1-22.68l-1.78,18.17h-1.44s-1.42-11.97-1.42-11.97l-1.12,17.05h-21.08v-1.45h19.61Zm-13.13-14h1.99v-4.49h2.9v4.44h2.82v2.15h-2.86l-.14,6.69c0,.86,.59,1.02,1.2,.91l1.57-.36,.54,1.89c-1.19,.76-2.61,1.1-4.02,.96-1.27-.24-2.08-.76-2.19-2.85l.08-7.22h-1.9v-2.13Zm-25.87,15.51h-1.56v-1.56h1.56v1.56Zm.64-2.98h0s-2.86,.05-2.86,.05v-15.84l3.26-1.66,7.72,12.42v-12.02h3.09l-.04,16.04-3.24,1.01-7.91-12.77-.02,12.77Zm2.34,2.98h-1.56v-1.56h1.56v1.56Zm2.98,0h-1.56v-1.56h1.57v1.56Zm2.98,0h-1.56v-1.56h1.56v1.56Zm2.98,0h-1.56v-1.56h1.56v1.56Zm2.98,0h-1.56v-1.56h1.56v1.56Zm2.98,0h-1.56v-1.56h1.56v1.56Zm-.43-3.33h0c-2.1-.66-3.41-2.72-3.59-5.25-.25-1.88,.29-3.78,1.48-5.25,.47-.55,1.03-1.01,1.66-1.37,1.33-.75,2.91-.91,4.37-.45,3.55,1.03,3.54,5.15,3.47,6.42h-.08v.05h-7.81c.01,1.4,.26,2.53,1.44,3.25,1.24,.76,2.81,.67,3.96-.21,.29-.17,.58-.36,.87-.56h0s.06-.03,.09-.05l1.12,1.8c-.4,.32-.81,.61-1.25,.87-1.69,1.1-3.8,1.38-5.72,.75Z" fill="#fff"/>
  <polygon points="8.25 60.17 9.37 60.17 9.37 56.41 12.95 56.41 12.95 55.49 9.37 55.49 9.37 52.56 13.53 52.56 13.53 51.64 8.25 51.64 8.25 60.17" fill="#fff"/>
  <rect x="15.06" y="51.64" width="1.12" height="8.53" fill="#fff"/>
  <polygon points="17.46 52.56 20.2 52.56 20.2 60.17 21.32 60.17 21.32 52.56 24.06 52.56 24.06 51.64 17.46 51.64 17.46 52.56" fill="#fff"/>
  <path d="M29.83,56.04c-.4-.24-.96-.46-1.66-.66-.71-.2-1.21-.42-1.51-.66-.29-.24-.44-.54-.44-.88,0-.43,.16-.77,.47-1.02,.31-.25,.74-.37,1.3-.37,.6,0,1.06,.15,1.39,.44s.49,.7,.49,1.22h1.13c0-.47-.13-.91-.38-1.31s-.61-.71-1.07-.94-.98-.34-1.57-.34c-.86,0-1.56,.22-2.09,.66s-.81,1-.81,1.67c0,.59,.22,1.09,.66,1.5s1.14,.75,2.11,1.02c.77,.22,1.3,.45,1.59,.68s.44,.55,.44,.97-.16,.75-.47,.99-.77,.36-1.37,.36c-.64,0-1.15-.15-1.53-.45s-.57-.71-.57-1.22h-1.13c0,.5,.14,.94,.41,1.33s.67,.7,1.17,.92,1.05,.34,1.64,.34c.9,0,1.62-.21,2.16-.62s.81-.97,.81-1.66c0-.43-.1-.81-.29-1.13s-.49-.6-.89-.84Z" fill="#fff"/>
  <path d="M38.04,51.64l-3.26,8.53h1.16l.8-2.23h3.57l.81,2.23h1.15l-3.26-8.53h-.98Zm-.96,5.38l1.45-3.99,1.45,3.99h-2.9Z" fill="#fff"/>
  <path d="M46.68,51.64h-3.15v8.53h1.12v-3.34h2.01c.96,0,1.71-.22,2.22-.67s.78-1.08,.78-1.91c0-.79-.26-1.42-.79-1.89s-1.26-.71-2.19-.71Zm1.38,3.85c-.32,.28-.78,.43-1.38,.43h-2.02v-3.35h2.09c.56,.01,1,.17,1.32,.48,.32,.3,.48,.71,.48,1.22,0,.54-.16,.95-.48,1.23Z" fill="#fff"/>
  <rect x="51.28" y="51.64" width="1.12" height="8.53" fill="#fff"/>
</svg>